<?xml version="1.0" encoding="UTF-8" standalone="no"?><!-- Generator: Gravit.io --><svg xmlns="http://www.w3.org/2000/svg" xmlns:xlink="http://www.w3.org/1999/xlink" style="isolation:isolate" viewBox="0 0 512 512" width="512pt" height="512pt"><g filter="url(#KC4vaKoaxqRG482XGZMnjKJ8AXL6E4Mq)"><path d="M 120.25 0 L 120.25 0 C 155.573 0 184.25 28.677 184.25 64 L 184.25 448 C 184.25 483.323 155.573 512 120.25 512 L 120.25 512 C 84.927 512 56.25 483.323 56.25 448 L 56.25 64 C 56.25 28.677 84.927 0 120.25 0 Z" style="stroke:none;fill:#F5487F;stroke-miterlimit:10;"/><clipPath id="_clipPath_PeTcy2c5WXC1ESg1VpqzOLRPtU6fEbeK"><path d="M 120.25 0 L 120.25 0 C 155.573 0 184.25 28.677 184.25 64 L 184.25 448 C 184.25 483.323 155.573 512 120.25 512 L 120.25 512 C 84.927 512 56.25 483.323 56.25 448 L 56.25 64 C 56.25 28.677 84.927 0 120.25 0 Z" style="stroke:none;fill:#F5487F;stroke-miterlimit:10;"/></clipPath><g clip-path="url(#_clipPath_PeTcy2c5WXC1ESg1VpqzOLRPtU6fEbeK)"><ellipse vector-effect="non-scaling-stroke" cx="37.74804705876937" cy="225.49999999999974" rx="162.49999999999991" ry="173.4999999999999" fill="rgb(143,59,118)"/></g><path d=" M 290.262 256 C 290.262 336.998 412.043 377.781 437.019 402.758 C 461.996 427.735 461.996 468.291 437.019 493.267 L 437.019 493.267 Q 412.043 518.244 346.51 493.267 Q 120.248 383.137 120.248 256 Q 120.248 128.863 346.51 18.733 Q 412.043 -6.244 437.019 18.733 L 437.019 18.733 C 461.996 43.709 461.996 84.265 437.019 109.242 C 412.043 134.219 290.262 175.002 290.262 256 Z " fill="rgb(245,72,127)"/><clipPath id="_clipPath_RIUftZF8aZUuG4n79fAQrBbYZYKITyZ7"><path d=" M 290.262 256 C 290.262 336.998 412.043 377.781 437.019 402.758 C 461.996 427.735 461.996 468.291 437.019 493.267 L 437.019 493.267 Q 412.043 518.244 346.51 493.267 Q 120.248 383.137 120.248 256 Q 120.248 128.863 346.51 18.733 Q 412.043 -6.244 437.019 18.733 L 437.019 18.733 C 461.996 43.709 461.996 84.265 437.019 109.242 C 412.043 134.219 290.262 175.002 290.262 256 Z " fill="rgb(245,72,127)"/></clipPath><g clip-path="url(#_clipPath_RIUftZF8aZUuG4n79fAQrBbYZYKITyZ7)"><ellipse vector-effect="non-scaling-stroke" cx="409.7480470587694" cy="340.0000000000002" rx="162.49999999999994" ry="184" fill="rgb(143,59,118)"/></g></g><defs><filter id="KC4vaKoaxqRG482XGZMnjKJ8AXL6E4Mq" x="-200%" y="-200%" width="400%" height="400%" filterUnits="objectBoundingBox" color-interpolation-filters="sRGB"><feGaussianBlur xmlns="http://www.w3.org/2000/svg" in="SourceGraphic" stdDeviation="4.293609062839028"/><feOffset xmlns="http://www.w3.org/2000/svg" dx="10" dy="10" result="pf_100_offsetBlur"/><feFlood xmlns="http://www.w3.org/2000/svg" flood-color="#000000" flood-opacity="0.1"/><feComposite xmlns="http://www.w3.org/2000/svg" in2="pf_100_offsetBlur" operator="in" result="pf_100_dropShadow"/><feBlend xmlns="http://www.w3.org/2000/svg" in="SourceGraphic" in2="pf_100_dropShadow" mode="normal"/></filter></defs></svg>