<?xml version="1.0" encoding="UTF-8" standalone="no"?><!-- Generator: Gravit.io --><svg xmlns="http://www.w3.org/2000/svg" xmlns:xlink="http://www.w3.org/1999/xlink" style="isolation:isolate" viewBox="0 0 64 64" width="64pt" height="64pt"><defs><filter id="tvX0hAcAI5RAx1xTwp1Lp2FBZTxVes9g" x="-200%" y="-200%" width="400%" height="400%" filterUnits="objectBoundingBox" color-interpolation-filters="sRGB"><feGaussianBlur xmlns="http://www.w3.org/2000/svg" in="SourceGraphic" stdDeviation="4.293609062839028"/><feOffset xmlns="http://www.w3.org/2000/svg" dx="0" dy="0" result="pf_100_offsetBlur"/><feFlood xmlns="http://www.w3.org/2000/svg" flood-color="#000000" flood-opacity="0.2"/><feComposite xmlns="http://www.w3.org/2000/svg" in2="pf_100_offsetBlur" operator="in" result="pf_100_dropShadow"/><feBlend xmlns="http://www.w3.org/2000/svg" in="SourceGraphic" in2="pf_100_dropShadow" mode="normal"/></filter></defs><g filter="url(#tvX0hAcAI5RAx1xTwp1Lp2FBZTxVes9g)"><path d=" M 49.6 0 L 40 0 C 31.163 0 24 7.163 24 16 L 24 25.6 L 14.4 25.6 L 14.4 38.4 L 24 38.4 L 24 64 L 36.8 64 L 36.8 38.4 L 46.4 38.4 L 49.6 25.6 L 36.8 25.6 L 36.8 16 C 36.8 14.233 38.233 12.8 40 12.8 L 49.6 12.8 L 49.6 0 Z " fill="rgb(245,72,127)"/><clipPath id="_clipPath_IEAkSvQIQDE3cnYIjYNPItLljtEHtJGC"><path d=" M 49.6 0 L 40 0 C 31.163 0 24 7.163 24 16 L 24 25.6 L 14.4 25.6 L 14.4 38.4 L 24 38.4 L 24 64 L 36.8 64 L 36.8 38.4 L 46.4 38.4 L 49.6 25.6 L 36.8 25.6 L 36.8 16 C 36.8 14.233 38.233 12.8 40 12.8 L 49.6 12.8 L 49.6 0 Z " fill="rgb(245,72,127)"/></clipPath><g clip-path="url(#_clipPath_IEAkSvQIQDE3cnYIjYNPItLljtEHtJGC)"><ellipse vector-effect="non-scaling-stroke" cx="20.58666666666667" cy="43.19999999999999" rx="19.413333333333327" ry="20.799999999999997" fill="rgb(143,59,118)"/><ellipse vector-effect="non-scaling-stroke" cx="53.013333333333335" cy="-4.7999999999999865" rx="19.413333333333327" ry="20.799999999999994" fill="rgb(143,59,118)"/></g></g></svg>