<?xml version="1.0" encoding="UTF-8" standalone="no"?><!-- Generator: Gravit.io --><svg xmlns="http://www.w3.org/2000/svg" xmlns:xlink="http://www.w3.org/1999/xlink" style="isolation:isolate" viewBox="0 0 64 64" width="64pt" height="64pt"><path d=" M 20.87 64 Q 23.714 63.1 23.714 61.995 C 23.714 61.008 23.678 58.387 23.658 54.912 C 12.071 57.428 9.626 49.326 9.626 49.326 C 7.731 44.516 5 43.235 5 43.235 C 1.218 40.65 5.286 40.701 5.286 40.701 C 9.467 40.997 11.667 44.994 11.667 44.994 C 15.382 51.359 21.417 49.521 23.791 48.457 C 24.169 45.764 25.243 43.928 26.435 42.887 C 17.185 41.836 7.46 38.261 7.46 22.299 C 7.46 17.752 9.084 14.034 11.748 11.121 C 11.319 10.067 9.889 5.832 12.155 0.097 C 12.155 0.097 15.653 -1.024 23.612 4.367 C 26.933 3.444 30.498 2.981 34.04 2.966 C 37.577 2.981 41.142 3.444 44.469 4.367 C 52.422 -1.024 55.912 0.097 55.912 0.097 C 58.186 5.832 56.756 10.067 56.327 11.121 C 58.996 14.034 60.61 17.752 60.61 22.299 C 60.61 38.302 50.869 41.823 41.589 42.854 C 43.085 44.14 44.417 46.682 44.417 50.569 C 44.417 56.136 44.366 60.63 44.366 61.995 Q 44.366 63.11 47.23 64 L 20.87 64 Z " fill-rule="evenodd" fill="rgb(245,72,127)"/><clipPath id="_clipPath_LhtVW65XCHBZjK23DGvaWEUv7zT8n040"><path d=" M 20.87 64 Q 23.714 63.1 23.714 61.995 C 23.714 61.008 23.678 58.387 23.658 54.912 C 12.071 57.428 9.626 49.326 9.626 49.326 C 7.731 44.516 5 43.235 5 43.235 C 1.218 40.65 5.286 40.701 5.286 40.701 C 9.467 40.997 11.667 44.994 11.667 44.994 C 15.382 51.359 21.417 49.521 23.791 48.457 C 24.169 45.764 25.243 43.928 26.435 42.887 C 17.185 41.836 7.46 38.261 7.46 22.299 C 7.46 17.752 9.084 14.034 11.748 11.121 C 11.319 10.067 9.889 5.832 12.155 0.097 C 12.155 0.097 15.653 -1.024 23.612 4.367 C 26.933 3.444 30.498 2.981 34.04 2.966 C 37.577 2.981 41.142 3.444 44.469 4.367 C 52.422 -1.024 55.912 0.097 55.912 0.097 C 58.186 5.832 56.756 10.067 56.327 11.121 C 58.996 14.034 60.61 17.752 60.61 22.299 C 60.61 38.302 50.869 41.823 41.589 42.854 C 43.085 44.14 44.417 46.682 44.417 50.569 C 44.417 56.136 44.366 60.63 44.366 61.995 Q 44.366 63.11 47.23 64 L 20.87 64 Z " fill-rule="evenodd" fill="rgb(245,72,127)"/></clipPath><g clip-path="url(#_clipPath_LhtVW65XCHBZjK23DGvaWEUv7zT8n040)"><ellipse vector-effect="non-scaling-stroke" cx="65.26011534565464" cy="58.19508650924094" rx="44.26011534565464" ry="33.19508650924095" fill="rgb(143,59,118)"/><ellipse vector-effect="non-scaling-stroke" cx="6.70164959768567" cy="-17.30746319805219" rx="29.289782214036123" ry="42.30746319805218" fill="rgb(143,59,118)"/></g></svg>