<?xml version="1.0" encoding="UTF-8" standalone="no"?><!-- Generator: Gravit.io --><svg xmlns="http://www.w3.org/2000/svg" xmlns:xlink="http://www.w3.org/1999/xlink" style="isolation:isolate" viewBox="0 0 64 64" width="64pt" height="64pt"><defs><filter id="pW1ZZVx4q1du3jsgMdZ1AWsmibqOJNcq" x="-200%" y="-200%" width="400%" height="400%" filterUnits="objectBoundingBox" color-interpolation-filters="sRGB"><feGaussianBlur xmlns="http://www.w3.org/2000/svg" in="SourceGraphic" stdDeviation="4.293609062839028"/><feOffset xmlns="http://www.w3.org/2000/svg" dx="0" dy="0" result="pf_100_offsetBlur"/><feFlood xmlns="http://www.w3.org/2000/svg" flood-color="#000000" flood-opacity="0.1"/><feComposite xmlns="http://www.w3.org/2000/svg" in2="pf_100_offsetBlur" operator="in" result="pf_100_dropShadow"/><feBlend xmlns="http://www.w3.org/2000/svg" in="SourceGraphic" in2="pf_100_dropShadow" mode="normal"/></filter></defs><g filter="url(#pW1ZZVx4q1du3jsgMdZ1AWsmibqOJNcq)"><path d=" M 44.8 20.8 C 55.404 20.8 64 29.396 64 40 L 64 62.4 L 51.2 62.4 L 51.2 40 C 51.2 36.465 48.335 33.6 44.8 33.6 C 41.265 33.6 38.4 36.465 38.4 40 L 38.4 62.4 L 25.6 62.4 L 25.6 40 C 25.6 29.396 34.196 20.8 44.8 20.8 L 44.8 20.8 Z  M 0 24 L 12.8 24 L 12.8 62.4 L 0 62.4 L 0 24 L 0 24 Z  M 0 8 C 0 4.468 2.868 1.6 6.4 1.6 C 9.932 1.6 12.8 4.468 12.8 8 C 12.8 11.532 9.932 14.4 6.4 14.4 C 2.868 14.4 0 11.532 0 8 Z " fill-rule="evenodd" fill="rgb(245,72,127)"/><clipPath id="_clipPath_8OveLUZZCsQkHiJc0Pxo4qN7Y8fbR33L"><path d=" M 44.8 20.8 C 55.404 20.8 64 29.396 64 40 L 64 62.4 L 51.2 62.4 L 51.2 40 C 51.2 36.465 48.335 33.6 44.8 33.6 C 41.265 33.6 38.4 36.465 38.4 40 L 38.4 62.4 L 25.6 62.4 L 25.6 40 C 25.6 29.396 34.196 20.8 44.8 20.8 L 44.8 20.8 Z  M 0 24 L 12.8 24 L 12.8 62.4 L 0 62.4 L 0 24 L 0 24 Z  M 0 8 C 0 4.468 2.868 1.6 6.4 1.6 C 9.932 1.6 12.8 4.468 12.8 8 C 12.8 11.532 9.932 14.4 6.4 14.4 C 2.868 14.4 0 11.532 0 8 Z " fill-rule="evenodd" fill="rgb(245,72,127)"/></clipPath><g clip-path="url(#_clipPath_8OveLUZZCsQkHiJc0Pxo4qN7Y8fbR33L)"><ellipse vector-effect="non-scaling-stroke" cx="14.586666666666657" cy="61.199999999999974" rx="19.41333333333333" ry="20.799999999999997" fill="rgb(143,59,118)"/><ellipse vector-effect="non-scaling-stroke" cx="61.58666666666667" cy="23.200000000000006" rx="19.413333333333327" ry="20.79999999999999" fill="rgb(143,59,118)"/></g></g></svg>