<?xml version="1.0" encoding="UTF-8" standalone="no"?><!-- Generator: Gravit.io --><svg xmlns="http://www.w3.org/2000/svg" xmlns:xlink="http://www.w3.org/1999/xlink" style="isolation:isolate" viewBox="0 0 58.752 58.752" width="58.752pt" height="58.752pt"><path d=" M 52.524 23.925 L 12.507 0.824 C 10.6 -0.276 8.131 -0.273 6.231 0.824 C 4.293 1.94 3.088 4.025 3.088 6.264 L 3.088 52.469 C 3.088 54.709 4.292 56.794 6.219 57.904 C 7.172 58.459 8.261 58.752 9.368 58.752 C 10.472 58.752 11.56 58.46 12.509 57.909 L 52.526 34.806 C 54.462 33.687 55.664 31.603 55.664 29.367 C 55.663 27.134 54.462 25.05 52.524 23.925 Z " fill="rgb(245,72,127)"/><clipPath id="_clipPath_ABgNWHYgLnySaD4iT9UsHS9UF5xqo7jx"><path d=" M 52.524 23.925 L 12.507 0.824 C 10.6 -0.276 8.131 -0.273 6.231 0.824 C 4.293 1.94 3.088 4.025 3.088 6.264 L 3.088 52.469 C 3.088 54.709 4.292 56.794 6.219 57.904 C 7.172 58.459 8.261 58.752 9.368 58.752 C 10.472 58.752 11.56 58.46 12.509 57.909 L 52.526 34.806 C 54.462 33.687 55.664 31.603 55.664 29.367 C 55.663 27.134 54.462 25.05 52.524 23.925 Z " fill="rgb(245,72,127)"/></clipPath><g clip-path="url(#_clipPath_ABgNWHYgLnySaD4iT9UsHS9UF5xqo7jx)"><ellipse vector-effect="non-scaling-stroke" cx="38.5" cy="20.500000000000004" rx="19.5" ry="22.500000000000007" fill="rgb(143,59,118)"/></g></svg>